<svg xmlns="http://www.w3.org/2000/svg" viewBox="0 0 385.5 337.2" enable-background="new 0 0 385.5 337.2"><g stroke="#666" stroke-width=".5" stroke-miterlimit="10" fill="none"><path d="M45.4 98.4s-3.4 60.1-1.7 63.8l58.2-102.4-50.8 74.8 8.9-65.9-23.7 39.9-18.7 37.3 6.5-4.4 21.3-43.1z"/><polygon points="143.9,43.8 103.8,134.6 136.5,84.9"/><path d="M214.1 24l-6.1 9.8c4.2-5.8 6.6-9.7 6.1-9.8zM171.9 92.1l36.2-58.3c-13.8 19.5-46.5 61.3-49.7 61.3-1 0 31 61.2 31 61.2l-17.5-64.2zM251 80.4l25.3 57.2-15.5-67.3 44.5-30.2-40 18.2c4.3-14.4 4.6-32.3 3.9-51-6.1 29.6-26.1 73.3-48.4 119.2 11-20 21.8-38.6 30.2-46.1zM99.1 214.1c-15.9 19.4-30.2 39-39.4 59.5l2.7-8.8 2.1-74.9c-12 31.6-32.6 71.4-55.8 113.7l48.4-66.1-15.5 91.4c17.5-41 36.4-79.7 57.5-114.8zM83.6 297.8l36-52.2s5.3-17.3 7.4-22.7c2.1-5.4 12-45.3 12-45.3l-55.4 120.2z"/><polygon points="153.5,276.7 193.1,169.2 127.4,306.3 194.8,256.7"/><path d="M229 257.1l50.5-36.5-47.7 21.9 10.6-32.3 39.2-46.1-46.3 39.2c-2.1 21.9-13.4 52.4-26.8 84.9 0 0-3.2 15.7-5.3 19.6-2.1 3.8-8.5 13.1-8.5 13.1l71-63.4-47.3 31.9 10.6-32.3zM332.5 201.4c17.5-20.9 32.5-40.8 43.8-59.5l-60.7 67.6-13.1 17.7c1.8 3.1 23.9-2.2 28.6-7.7 4.5-5.3 18.4-10.4 18.4-10.4l-70.6 94.1 91.4-102.9-48 8.8 10.2-7.7z"/></g></svg>