<?xml version="1.0" encoding="utf-8"?>
<!-- Generator: Adobe Illustrator 17.1.0, SVG Export Plug-In . SVG Version: 6.00 Build 0)  -->
<!DOCTYPE svg PUBLIC "-//W3C//DTD SVG 1.1//EN" "http://www.w3.org/Graphics/SVG/1.1/DTD/svg11.dtd">
<svg version="1.1" id="Layer_1" xmlns="http://www.w3.org/2000/svg" xmlns:xlink="http://www.w3.org/1999/xlink" x="0px" y="0px"
	 viewBox="0 0 385.5 337.2" enable-background="new 0 0 385.5 337.2" xml:space="preserve">
<g>
	<path fill="none" stroke="#666666" stroke-width="0.5" stroke-miterlimit="10" d="M45.4,98.4c0,0-3.4,60.1-1.7,63.8
		s58.2-102.4,58.2-102.4l-50.8,74.8L60,68.7l-23.7,39.9l-18.7,37.3l6.5-4.4L45.4,98.4z"/>
	<polygon fill="none" stroke="#666666" stroke-width="0.5" stroke-miterlimit="10" points="143.9,43.8 103.8,134.6 136.5,84.9 	"/>
	<path fill="none" stroke="#666666" stroke-width="0.5" stroke-miterlimit="10" d="M214.1,24l-6.1,9.8C212.2,28,214.6,24.1,214.1,24
		z"/>
	<path fill="none" stroke="#666666" stroke-width="0.5" stroke-miterlimit="10" d="M171.9,92.1l36.2-58.3
		c-13.8,19.5-46.5,61.3-49.7,61.3c-1,0,31,61.2,31,61.2L171.9,92.1z"/>
	<path fill="none" stroke="#666666" stroke-width="0.5" stroke-miterlimit="10" d="M251,80.4l25.3,57.2l-15.5-67.3l44.5-30.2
		l-40,18.2c4.3-14.4,4.6-32.3,3.9-51c-6.1,29.6-26.1,73.3-48.4,119.2C231.8,106.5,242.6,87.9,251,80.4z"/>
	<path fill="none" stroke="#666666" stroke-width="0.5" stroke-miterlimit="10" d="M99.1,214.1c-15.9,19.4-30.2,39-39.4,59.5
		l2.7-8.8l2.1-74.9c-12,31.6-32.6,71.4-55.8,113.7l48.4-66.1l-15.5,91.4C59.1,287.9,78,249.2,99.1,214.1z"/>
	<path fill="none" stroke="#666666" stroke-width="0.5" stroke-miterlimit="10" d="M83.6,297.8l36-52.2c0,0,5.3-17.3,7.4-22.7
		c2.1-5.4,12-45.3,12-45.3L83.6,297.8z"/>
	<polygon fill="none" stroke="#666666" stroke-width="0.5" stroke-miterlimit="10" points="153.5,276.7 193.1,169.2 127.4,306.3 
		194.8,256.7 	"/>
	<path fill="none" stroke="#666666" stroke-width="0.5" stroke-miterlimit="10" d="M229,257.1l50.5-36.5l-47.7,21.9l10.6-32.3
		l39.2-46.1l-46.3,39.2c-2.1,21.9-13.4,52.4-26.8,84.9c0,0-3.2,15.7-5.3,19.6c-2.1,3.8-8.5,13.1-8.5,13.1l71-63.4l-47.3,31.9
		L229,257.1z"/>
	<path fill="none" stroke="#666666" stroke-width="0.5" stroke-miterlimit="10" d="M332.5,201.4c17.5-20.9,32.5-40.8,43.8-59.5
		l-60.7,67.6l-13.1,17.7c1.8,3.1,23.9-2.2,28.6-7.7c4.5-5.3,18.4-10.4,18.4-10.4l-70.6,94.1l91.4-102.9l-48,8.8L332.5,201.4z"/>
</g>
</svg>
